<svg width="307" height="48" viewBox="0 0 307 48" fill="none" xmlns="http://www.w3.org/2000/svg">
<g clip-path="url(#clip0)">
<circle cx="24" cy="24" r="34.5" fill="black" stroke="black"/>
<path d="M36.8 8.00001C35.0362 7.99646 33.6038 9.5823 33.6006 11.5421C33.5991 12.4658 33.9219 13.3538 34.5002 14.0172L28.6539 27.0069C28.5258 26.9833 28.3964 26.9686 28.2667 26.9631C27.8536 26.964 27.4446 27.0542 27.0624 27.2285L22.5238 21.5574C22.7887 21.0369 22.9297 20.4499 22.9334 19.8519C22.9334 17.8883 21.5007 16.2964 19.7334 16.2964C17.9661 16.2964 16.5334 17.8883 16.5334 19.8519C16.5365 20.7007 16.8153 21.5197 17.3184 22.1583L11.7717 32.9529C11.5833 32.9126 11.3919 32.8912 11.2 32.8889C9.43269 32.8889 8 34.4808 8 36.4444C8 38.4081 9.43269 40 11.2 40C12.9673 40 14.4 38.4081 14.4 36.4444C14.3969 35.5957 14.1181 34.7767 13.6149 34.1381L19.1616 23.3434C19.7571 23.4741 20.3741 23.404 20.9334 23.1419L25.4721 28.8131C25.2086 29.334 25.0691 29.921 25.0667 30.5185C25.0614 32.4822 26.4897 34.0789 28.2571 34.0848C30.0244 34.0907 31.4614 32.5037 31.4667 30.54C31.4692 29.6136 31.1462 28.7227 30.5664 28.0569L36.4128 15.0673C36.5409 15.0909 36.6702 15.1056 36.8 15.1111C38.5673 15.1111 40 13.5192 40 11.5556C40 9.59188 38.5673 8.00001 36.8 8.00001ZM11.2 37.6297C10.6109 37.6297 10.1333 37.099 10.1333 36.4444C10.1333 35.7899 10.6109 35.2592 11.2 35.2592C11.7891 35.2592 12.2667 35.7899 12.2667 36.4444C12.2667 37.099 11.7891 37.6297 11.2 37.6297ZM19.7333 21.037C19.1442 21.037 18.6666 20.5064 18.6666 19.8518C18.6666 19.1972 19.1442 18.6666 19.7333 18.6666C20.3224 18.6666 20.8 19.1972 20.8 19.8518C20.8 20.5064 20.3224 21.037 19.7333 21.037ZM28.2667 31.7037C27.6776 31.7037 27.2 31.1731 27.2 30.5185C27.2 29.8639 27.6776 29.3333 28.2667 29.3333C28.8558 29.3333 29.3334 29.8639 29.3334 30.5185C29.3333 31.1731 28.8557 31.7037 28.2667 31.7037ZM36.8 12.7408C36.2109 12.7408 35.7333 12.2101 35.7333 11.5556C35.7333 10.901 36.2109 10.3704 36.8 10.3704C37.3891 10.3704 37.8667 10.901 37.8667 11.5556C37.8667 12.2101 37.3891 12.7408 36.8 12.7408Z" fill="white"/>
</g>
<path d="M96.62 24.932C98.324 25.34 99.608 26.072 100.472 27.128C101.36 28.16 101.804 29.492 101.804 31.124C101.804 33.308 101 35 99.392 36.2C97.808 37.4 95.492 38 92.444 38H80.924V12.8H91.76C94.52 12.8 96.668 13.364 98.204 14.492C99.764 15.596 100.544 17.192 100.544 19.28C100.544 20.648 100.196 21.812 99.5 22.772C98.828 23.732 97.868 24.452 96.62 24.932ZM84.488 23.888H91.508C93.26 23.888 94.592 23.54 95.504 22.844C96.44 22.148 96.908 21.128 96.908 19.784C96.908 18.44 96.44 17.42 95.504 16.724C94.568 16.004 93.236 15.644 91.508 15.644H84.488V23.888ZM92.372 35.156C96.236 35.156 98.168 33.716 98.168 30.836C98.168 29.396 97.676 28.34 96.692 27.668C95.732 26.972 94.292 26.624 92.372 26.624H84.488V35.156H92.372ZM128.411 12.8V38H124.883V15.932H113.723L113.471 23.312C113.351 26.792 113.063 29.612 112.607 31.772C112.175 33.932 111.479 35.564 110.519 36.668C109.559 37.748 108.263 38.288 106.631 38.288C105.887 38.288 105.131 38.192 104.363 38L104.615 34.796C104.999 34.892 105.383 34.94 105.767 34.94C106.799 34.94 107.627 34.532 108.251 33.716C108.875 32.876 109.343 31.628 109.655 29.972C109.967 28.316 110.171 26.132 110.267 23.42L110.663 12.8H128.411ZM145.044 26.912H139.788V38H136.26V12.8H139.788V23.744H145.116L153.036 12.8H156.888L147.888 25.004L157.32 38H153.216L145.044 26.912ZM162.034 38.216C161.362 38.216 160.786 37.988 160.306 37.532C159.826 37.052 159.586 36.452 159.586 35.732C159.586 35.036 159.826 34.46 160.306 34.004C160.786 33.524 161.362 33.284 162.034 33.284C162.706 33.284 163.27 33.512 163.726 33.968C164.182 34.424 164.41 35.012 164.41 35.732C164.41 36.452 164.17 37.052 163.69 37.532C163.234 37.988 162.682 38.216 162.034 38.216ZM177.184 38.216C175.288 38.216 173.584 37.796 172.072 36.956C170.56 36.116 169.372 34.964 168.508 33.5C167.668 32.012 167.248 30.332 167.248 28.46C167.248 26.588 167.668 24.92 168.508 23.456C169.372 21.968 170.56 20.816 172.072 20C173.584 19.16 175.288 18.74 177.184 18.74C179.08 18.74 180.772 19.16 182.26 20C183.772 20.816 184.948 21.968 185.788 23.456C186.652 24.92 187.084 26.588 187.084 28.46C187.084 30.332 186.652 32.012 185.788 33.5C184.948 34.964 183.772 36.116 182.26 36.956C180.772 37.796 179.08 38.216 177.184 38.216ZM177.184 35.192C178.408 35.192 179.5 34.916 180.46 34.364C181.444 33.788 182.212 32.996 182.764 31.988C183.316 30.956 183.592 29.78 183.592 28.46C183.592 27.14 183.316 25.976 182.764 24.968C182.212 23.936 181.444 23.144 180.46 22.592C179.5 22.04 178.408 21.764 177.184 21.764C175.96 21.764 174.856 22.04 173.872 22.592C172.912 23.144 172.144 23.936 171.568 24.968C171.016 25.976 170.74 27.14 170.74 28.46C170.74 29.78 171.016 30.956 171.568 31.988C172.144 32.996 172.912 33.788 173.872 34.364C174.856 34.916 175.96 35.192 177.184 35.192ZM192.075 18.92H195.531V27.02H206.403V18.92H209.859V38H206.403V30.008H195.531V38H192.075V18.92ZM232.958 18.92V38H229.502V21.944H221.294L221.078 26.192C220.958 28.76 220.73 30.908 220.394 32.636C220.058 34.34 219.506 35.708 218.738 36.74C217.97 37.772 216.902 38.288 215.534 38.288C214.91 38.288 214.202 38.18 213.41 37.964L213.626 35.048C213.938 35.12 214.226 35.156 214.49 35.156C215.45 35.156 216.17 34.736 216.65 33.896C217.13 33.056 217.442 32.06 217.586 30.908C217.73 29.756 217.862 28.112 217.982 25.976L218.306 18.92H232.958ZM246.445 18.74C249.085 18.74 251.101 19.388 252.493 20.684C253.909 21.98 254.617 23.912 254.617 26.48V38H251.341V35.48C250.765 36.368 249.937 37.052 248.857 37.532C247.801 37.988 246.541 38.216 245.077 38.216C242.941 38.216 241.225 37.7 239.929 36.668C238.657 35.636 238.021 34.28 238.021 32.6C238.021 30.92 238.633 29.576 239.857 28.568C241.081 27.536 243.025 27.02 245.689 27.02H251.161V26.336C251.161 24.848 250.729 23.708 249.865 22.916C249.001 22.124 247.729 21.728 246.049 21.728C244.921 21.728 243.817 21.92 242.737 22.304C241.657 22.664 240.745 23.156 240.001 23.78L238.561 21.188C239.545 20.396 240.721 19.796 242.089 19.388C243.457 18.956 244.909 18.74 246.445 18.74ZM245.653 35.552C246.973 35.552 248.113 35.264 249.073 34.688C250.033 34.088 250.729 33.248 251.161 32.168V29.504H245.833C242.905 29.504 241.441 30.488 241.441 32.456C241.441 33.416 241.813 34.172 242.557 34.724C243.301 35.276 244.333 35.552 245.653 35.552ZM260.84 18.92H264.296V32.816L275.996 18.92H279.128V38H275.672V24.104L264.008 38H260.84V18.92ZM269.768 16.436C267.992 16.436 266.612 16.016 265.628 15.176C264.644 14.312 264.14 13.076 264.116 11.468H266.456C266.48 12.356 266.78 13.076 267.356 13.628C267.956 14.156 268.748 14.42 269.732 14.42C270.716 14.42 271.508 14.156 272.108 13.628C272.708 13.076 273.02 12.356 273.044 11.468H275.456C275.432 13.076 274.916 14.312 273.908 15.176C272.9 16.016 271.52 16.436 269.768 16.436ZM285.836 18.92H289.292V27.02H300.164V18.92H303.62V38H300.164V30.008H289.292V38H285.836V18.92Z" fill="black"/>
<defs>
<clipPath id="clip0">
<rect width="48" height="48" fill="white"/>
</clipPath>
</defs>
</svg>
